<mxfile host="65bd71144e">
    <diagram id="tOHfMTqvIcVIOmYg2dzt" name="Page-1">
        <mxGraphModel dx="1908" dy="421" grid="1" gridSize="10" guides="1" tooltips="1" connect="1" arrows="1" fold="1" page="1" pageScale="1" pageWidth="850" pageHeight="1100" math="0" shadow="0">
            <root>
                <mxCell id="0"/>
                <mxCell id="1" parent="0"/>
                <mxCell id="2" value="To Do List" style="strokeWidth=1;shadow=0;dashed=0;align=center;html=1;shape=mxgraph.mockup.containers.window;align=left;verticalAlign=top;spacingLeft=8;strokeColor2=#008cff;strokeColor3=#c4c4c4;fontColor=#666666;mainText=;fontSize=17;labelBackgroundColor=none;whiteSpace=wrap;" parent="1" vertex="1">
                    <mxGeometry x="80" y="90" width="420" height="570" as="geometry"/>
                </mxCell>
                <mxCell id="18" value="" style="rounded=0;whiteSpace=wrap;html=1;fillColor=none;strokeColor=#d3d3d3;strokeWidth=2;" parent="1" vertex="1">
                    <mxGeometry x="95" y="150" width="390" height="495" as="geometry"/>
                </mxCell>
                <mxCell id="19" value="" style="rounded=0;whiteSpace=wrap;html=1;fillColor=none;strokeColor=#d3d3d3;strokeWidth=2;" parent="1" vertex="1">
                    <mxGeometry x="110" y="165" width="360.00000000000006" height="45" as="geometry"/>
                </mxCell>
                <mxCell id="20" value="" style="rounded=0;whiteSpace=wrap;html=1;fillColor=none;strokeColor=#d3d3d3;strokeWidth=2;" parent="1" vertex="1">
                    <mxGeometry x="110" y="217.5" width="360" height="362.5" as="geometry"/>
                </mxCell>
                <mxCell id="4" value="To Do List" style="text;html=1;align=center;verticalAlign=middle;whiteSpace=wrap;rounded=0;fontSize=18;" parent="1" vertex="1">
                    <mxGeometry x="200" y="165" width="180.00000000000003" height="45" as="geometry"/>
                </mxCell>
                <mxCell id="6" value="" style="dashed=0;labelPosition=right;align=left;shape=mxgraph.gmdl.checkbox;strokeColor=#B0B0B0;fillColor=none;strokeWidth=2;aspect=fixed;sketch=0;html=1;" parent="1" vertex="1">
                    <mxGeometry x="132.5" y="243" width="23.9999663866017" height="23.9999663866017" as="geometry"/>
                </mxCell>
                <mxCell id="23" value="Delete" style="strokeWidth=1;shadow=0;dashed=0;align=center;html=1;shape=mxgraph.mockup.buttons.button;strokeColor=#666666;fontColor=#ffffff;mainText=;buttonStyle=round;fontSize=10;fontStyle=1;fillColor=#008cff;whiteSpace=wrap;" parent="1" vertex="1">
                    <mxGeometry x="370" y="242.5" width="80" height="25" as="geometry"/>
                </mxCell>
                <mxCell id="32" value="" style="rounded=0;whiteSpace=wrap;html=1;fillColor=none;strokeColor=#d3d3d3;strokeWidth=2;" parent="1" vertex="1">
                    <mxGeometry x="110" y="587" width="360" height="50" as="geometry"/>
                </mxCell>
                <mxCell id="39" value="" style="verticalLabelPosition=bottom;verticalAlign=top;html=1;shadow=0;dashed=0;strokeWidth=1;shape=mxgraph.android.quickscroll3;dy=0.074;fillColor=#33b5e5;strokeColor=#66D5F5;" parent="1" vertex="1">
                    <mxGeometry x="460" y="230" width="6" height="340" as="geometry"/>
                </mxCell>
                <mxCell id="41" value="" style="dashed=0;labelPosition=right;align=left;shape=mxgraph.gmdl.checkbox;strokeColor=#B0B0B0;fillColor=none;strokeWidth=2;aspect=fixed;sketch=0;html=1;" parent="1" vertex="1">
                    <mxGeometry x="131.25" y="283" width="23.9999663866017" height="23.9999663866017" as="geometry"/>
                </mxCell>
                <mxCell id="42" value="Delete" style="strokeWidth=1;shadow=0;dashed=0;align=center;html=1;shape=mxgraph.mockup.buttons.button;strokeColor=#666666;fontColor=#ffffff;mainText=;buttonStyle=round;fontSize=10;fontStyle=1;fillColor=#008cff;whiteSpace=wrap;" parent="1" vertex="1">
                    <mxGeometry x="368.75" y="282.5" width="80" height="25" as="geometry"/>
                </mxCell>
                <mxCell id="44" value="" style="dashed=0;labelPosition=right;align=left;shape=mxgraph.gmdl.checkbox;strokeColor=#B0B0B0;fillColor=none;strokeWidth=2;aspect=fixed;sketch=0;html=1;" parent="1" vertex="1">
                    <mxGeometry x="131.25" y="323" width="23.9999663866017" height="23.9999663866017" as="geometry"/>
                </mxCell>
                <mxCell id="45" value="Delete" style="strokeWidth=1;shadow=0;dashed=0;align=center;html=1;shape=mxgraph.mockup.buttons.button;strokeColor=#666666;fontColor=#ffffff;mainText=;buttonStyle=round;fontSize=10;fontStyle=1;fillColor=#008cff;whiteSpace=wrap;" parent="1" vertex="1">
                    <mxGeometry x="368.75" y="322.5" width="80" height="25" as="geometry"/>
                </mxCell>
                <mxCell id="57" value="" style="rounded=0;whiteSpace=wrap;html=1;strokeWidth=2;strokeColor=#A4A4A4;" parent="1" vertex="1">
                    <mxGeometry x="560" y="173.75" width="360" height="362.5" as="geometry"/>
                </mxCell>
                <mxCell id="59" value="" style="dashed=0;labelPosition=right;align=left;shape=mxgraph.gmdl.checkbox;strokeColor=#B0B0B0;fillColor=none;strokeWidth=2;aspect=fixed;sketch=0;html=1;" parent="1" vertex="1">
                    <mxGeometry x="592.5" y="199.25" width="23.9999663866017" height="23.9999663866017" as="geometry"/>
                </mxCell>
                <mxCell id="60" value="Delete" style="strokeWidth=1;shadow=0;dashed=0;align=center;html=1;shape=mxgraph.mockup.buttons.button;strokeColor=#666666;fontColor=#ffffff;mainText=;buttonStyle=round;fontSize=10;fontStyle=1;fillColor=#008cff;whiteSpace=wrap;" parent="1" vertex="1">
                    <mxGeometry x="820" y="198.75" width="80" height="25" as="geometry"/>
                </mxCell>
                <mxCell id="62" value="" style="dashed=0;labelPosition=right;align=left;shape=mxgraph.gmdl.checkbox;strokeColor=#B0B0B0;fillColor=none;strokeWidth=2;aspect=fixed;sketch=0;html=1;" parent="1" vertex="1">
                    <mxGeometry x="591.25" y="239.25" width="23.9999663866017" height="23.9999663866017" as="geometry"/>
                </mxCell>
                <mxCell id="63" value="Delete" style="strokeWidth=1;shadow=0;dashed=0;align=center;html=1;shape=mxgraph.mockup.buttons.button;strokeColor=#666666;fontColor=#ffffff;mainText=;buttonStyle=round;fontSize=10;fontStyle=1;fillColor=#008cff;whiteSpace=wrap;" parent="1" vertex="1">
                    <mxGeometry x="818.75" y="238.75" width="80" height="25" as="geometry"/>
                </mxCell>
                <mxCell id="65" value="" style="dashed=0;labelPosition=right;align=left;shape=mxgraph.gmdl.checkbox;strokeColor=#B0B0B0;fillColor=none;strokeWidth=2;aspect=fixed;sketch=0;html=1;" parent="1" vertex="1">
                    <mxGeometry x="591.25" y="279.25" width="23.9999663866017" height="23.9999663866017" as="geometry"/>
                </mxCell>
                <mxCell id="66" value="Delete" style="strokeWidth=1;shadow=0;dashed=0;align=center;html=1;shape=mxgraph.mockup.buttons.button;strokeColor=#666666;fontColor=#ffffff;mainText=;buttonStyle=round;fontSize=10;fontStyle=1;fillColor=#008cff;whiteSpace=wrap;" parent="1" vertex="1">
                    <mxGeometry x="818.75" y="278.75" width="80" height="25" as="geometry"/>
                </mxCell>
                <mxCell id="67" value="" style="endArrow=none;html=1;" parent="1" edge="1">
                    <mxGeometry width="50" height="50" relative="1" as="geometry">
                        <mxPoint x="810.74" y="690" as="sourcePoint"/>
                        <mxPoint x="810.74" y="20" as="targetPoint"/>
                    </mxGeometry>
                </mxCell>
                <mxCell id="68" value="" style="endArrow=none;html=1;" parent="1" edge="1">
                    <mxGeometry width="50" height="50" relative="1" as="geometry">
                        <mxPoint x="649.6999999999999" y="690" as="sourcePoint"/>
                        <mxPoint x="649.6999999999999" y="20" as="targetPoint"/>
                    </mxGeometry>
                </mxCell>
                <mxCell id="69" value="Column 1" style="text;html=1;align=center;verticalAlign=middle;whiteSpace=wrap;rounded=0;" parent="1" vertex="1">
                    <mxGeometry x="705" y="120" width="70" height="30" as="geometry"/>
                </mxCell>
                <mxCell id="70" value="Column 0" style="text;html=1;align=center;verticalAlign=middle;whiteSpace=wrap;rounded=0;" parent="1" vertex="1">
                    <mxGeometry x="560" y="120" width="70" height="30" as="geometry"/>
                </mxCell>
                <mxCell id="71" value="Column 2" style="text;html=1;align=center;verticalAlign=middle;whiteSpace=wrap;rounded=0;" parent="1" vertex="1">
                    <mxGeometry x="830" y="120" width="70" height="30" as="geometry"/>
                </mxCell>
                <mxCell id="73" value="" style="rounded=0;whiteSpace=wrap;html=1;fillColor=none;strokeColor=#d3d3d3;strokeWidth=2;" parent="1" vertex="1">
                    <mxGeometry x="118.75" y="222.5" width="340" height="357.5" as="geometry"/>
                </mxCell>
                <mxCell id="74" value="" style="rounded=0;whiteSpace=wrap;html=1;strokeWidth=2;strokeColor=#BDBDBD;" parent="1" vertex="1">
                    <mxGeometry x="105" y="700" width="390" height="495" as="geometry"/>
                </mxCell>
                <mxCell id="75" value="" style="rounded=0;whiteSpace=wrap;html=1;fillColor=none;strokeColor=#d3d3d3;strokeWidth=2;" parent="1" vertex="1">
                    <mxGeometry x="120" y="715" width="360.00000000000006" height="45" as="geometry"/>
                </mxCell>
                <mxCell id="76" value="" style="rounded=0;whiteSpace=wrap;html=1;fillColor=none;strokeColor=#d3d3d3;strokeWidth=2;" parent="1" vertex="1">
                    <mxGeometry x="120" y="767.5" width="360" height="362.5" as="geometry"/>
                </mxCell>
                <mxCell id="78" value="To Do List" style="text;html=1;align=center;verticalAlign=middle;whiteSpace=wrap;rounded=0;fontSize=18;" parent="1" vertex="1">
                    <mxGeometry x="210" y="715" width="180.00000000000003" height="45" as="geometry"/>
                </mxCell>
                <mxCell id="79" value="" style="dashed=0;labelPosition=right;align=left;shape=mxgraph.gmdl.checkbox;strokeColor=#B0B0B0;fillColor=none;strokeWidth=2;aspect=fixed;sketch=0;html=1;" parent="1" vertex="1">
                    <mxGeometry x="142.5" y="793" width="23.9999663866017" height="23.9999663866017" as="geometry"/>
                </mxCell>
                <mxCell id="80" value="Delete" style="strokeWidth=1;shadow=0;dashed=0;align=center;html=1;shape=mxgraph.mockup.buttons.button;strokeColor=#666666;fontColor=#ffffff;mainText=;buttonStyle=round;fontSize=10;fontStyle=1;fillColor=#008cff;whiteSpace=wrap;" parent="1" vertex="1">
                    <mxGeometry x="380" y="792.5" width="80" height="25" as="geometry"/>
                </mxCell>
                <mxCell id="81" value="" style="rounded=0;whiteSpace=wrap;html=1;fillColor=none;strokeColor=#d3d3d3;strokeWidth=2;" parent="1" vertex="1">
                    <mxGeometry x="120" y="1137" width="360" height="50" as="geometry"/>
                </mxCell>
                <mxCell id="83" value="" style="verticalLabelPosition=bottom;verticalAlign=top;html=1;shadow=0;dashed=0;strokeWidth=1;shape=mxgraph.android.quickscroll3;dy=0.074;fillColor=#33b5e5;strokeColor=#66D5F5;" parent="1" vertex="1">
                    <mxGeometry x="470" y="780" width="6" height="340" as="geometry"/>
                </mxCell>
                <mxCell id="85" value="" style="dashed=0;labelPosition=right;align=left;shape=mxgraph.gmdl.checkbox;strokeColor=#B0B0B0;fillColor=none;strokeWidth=2;aspect=fixed;sketch=0;html=1;" parent="1" vertex="1">
                    <mxGeometry x="141.25" y="833" width="23.9999663866017" height="23.9999663866017" as="geometry"/>
                </mxCell>
                <mxCell id="86" value="Delete" style="strokeWidth=1;shadow=0;dashed=0;align=center;html=1;shape=mxgraph.mockup.buttons.button;strokeColor=#666666;fontColor=#ffffff;mainText=;buttonStyle=round;fontSize=10;fontStyle=1;fillColor=#008cff;whiteSpace=wrap;" parent="1" vertex="1">
                    <mxGeometry x="378.75" y="832.5" width="80" height="25" as="geometry"/>
                </mxCell>
                <mxCell id="88" value="" style="dashed=0;labelPosition=right;align=left;shape=mxgraph.gmdl.checkbox;strokeColor=#B0B0B0;fillColor=none;strokeWidth=2;aspect=fixed;sketch=0;html=1;" parent="1" vertex="1">
                    <mxGeometry x="141.25" y="873" width="23.9999663866017" height="23.9999663866017" as="geometry"/>
                </mxCell>
                <mxCell id="89" value="Delete" style="strokeWidth=1;shadow=0;dashed=0;align=center;html=1;shape=mxgraph.mockup.buttons.button;strokeColor=#666666;fontColor=#ffffff;mainText=;buttonStyle=round;fontSize=10;fontStyle=1;fillColor=#008cff;whiteSpace=wrap;" parent="1" vertex="1">
                    <mxGeometry x="378.75" y="872.5" width="80" height="25" as="geometry"/>
                </mxCell>
                <mxCell id="91" value="" style="endArrow=none;html=1;" parent="1" edge="1">
                    <mxGeometry width="50" height="50" relative="1" as="geometry">
                        <mxPoint x="-21.1" y="761.0799560546876" as="sourcePoint"/>
                        <mxPoint x="588.5999999999999" y="763.0000000000001" as="targetPoint"/>
                    </mxGeometry>
                </mxCell>
                <mxCell id="92" value="" style="endArrow=none;html=1;" parent="1" edge="1">
                    <mxGeometry width="50" height="50" relative="1" as="geometry">
                        <mxPoint x="-12.850000000000001" y="1136.9999560546876" as="sourcePoint"/>
                        <mxPoint x="596.8499999999999" y="1138.92" as="targetPoint"/>
                    </mxGeometry>
                </mxCell>
                <mxCell id="93" value="Row 0" style="text;html=1;align=center;verticalAlign=middle;whiteSpace=wrap;rounded=0;" parent="1" vertex="1">
                    <mxGeometry x="25" y="715" width="70" height="30" as="geometry"/>
                </mxCell>
                <mxCell id="94" value="Row 1" style="text;html=1;align=center;verticalAlign=middle;whiteSpace=wrap;rounded=0;" parent="1" vertex="1">
                    <mxGeometry x="10" y="897" width="70" height="30" as="geometry"/>
                </mxCell>
                <mxCell id="95" value="Row 2" style="text;html=1;align=center;verticalAlign=middle;whiteSpace=wrap;rounded=0;" parent="1" vertex="1">
                    <mxGeometry x="10" y="1152" width="70" height="30" as="geometry"/>
                </mxCell>
                <mxCell id="96" value="Label" style="text;html=1;align=center;verticalAlign=middle;whiteSpace=wrap;rounded=0;" vertex="1" parent="1">
                    <mxGeometry x="240" y="243" width="60" height="30" as="geometry"/>
                </mxCell>
                <mxCell id="97" value="Label" style="text;html=1;align=center;verticalAlign=middle;whiteSpace=wrap;rounded=0;" vertex="1" parent="1">
                    <mxGeometry x="240" y="280" width="60" height="30" as="geometry"/>
                </mxCell>
                <mxCell id="98" value="Label" style="text;html=1;align=center;verticalAlign=middle;whiteSpace=wrap;rounded=0;" vertex="1" parent="1">
                    <mxGeometry x="240" y="320" width="60" height="30" as="geometry"/>
                </mxCell>
                <mxCell id="99" value="Label" style="text;html=1;align=center;verticalAlign=middle;whiteSpace=wrap;rounded=0;" vertex="1" parent="1">
                    <mxGeometry x="710" y="192.5" width="60" height="30" as="geometry"/>
                </mxCell>
                <mxCell id="100" value="Label" style="text;html=1;align=center;verticalAlign=middle;whiteSpace=wrap;rounded=0;" vertex="1" parent="1">
                    <mxGeometry x="710" y="233.25" width="60" height="30" as="geometry"/>
                </mxCell>
                <mxCell id="101" value="Label" style="text;html=1;align=center;verticalAlign=middle;whiteSpace=wrap;rounded=0;" vertex="1" parent="1">
                    <mxGeometry x="710" y="277" width="60" height="30" as="geometry"/>
                </mxCell>
                <mxCell id="107" value="Label" style="text;html=1;align=center;verticalAlign=middle;whiteSpace=wrap;rounded=0;" vertex="1" parent="1">
                    <mxGeometry x="262" y="790" width="60" height="30" as="geometry"/>
                </mxCell>
                <mxCell id="108" value="Label" style="text;html=1;align=center;verticalAlign=middle;whiteSpace=wrap;rounded=0;" vertex="1" parent="1">
                    <mxGeometry x="262" y="830.75" width="60" height="30" as="geometry"/>
                </mxCell>
                <mxCell id="109" value="Label" style="text;html=1;align=center;verticalAlign=middle;whiteSpace=wrap;rounded=0;" vertex="1" parent="1">
                    <mxGeometry x="262" y="874.5" width="60" height="30" as="geometry"/>
                </mxCell>
                <mxCell id="110" value="" style="rounded=0;whiteSpace=wrap;html=1;fillColor=none;strokeColor=#d3d3d3;strokeWidth=2;" vertex="1" parent="1">
                    <mxGeometry x="122" y="767.5" width="340" height="357.5" as="geometry"/>
                </mxCell>
                <mxCell id="111" value="Entry" style="rounded=0;whiteSpace=wrap;html=1;" vertex="1" parent="1">
                    <mxGeometry x="155" y="600" width="185" height="20" as="geometry"/>
                </mxCell>
                <mxCell id="112" value="Add Item" style="strokeWidth=1;shadow=0;dashed=0;align=center;html=1;shape=mxgraph.mockup.buttons.button;strokeColor=#666666;fontColor=#ffffff;mainText=;buttonStyle=round;fontSize=10;fontStyle=1;fillColor=#008cff;whiteSpace=wrap;" vertex="1" parent="1">
                    <mxGeometry x="360" y="597.5" width="80" height="25" as="geometry"/>
                </mxCell>
                <mxCell id="113" value="Entry" style="rounded=0;whiteSpace=wrap;html=1;" vertex="1" parent="1">
                    <mxGeometry x="157.5" y="1152" width="185" height="20" as="geometry"/>
                </mxCell>
                <mxCell id="114" value="Add Item" style="strokeWidth=1;shadow=0;dashed=0;align=center;html=1;shape=mxgraph.mockup.buttons.button;strokeColor=#666666;fontColor=#ffffff;mainText=;buttonStyle=round;fontSize=10;fontStyle=1;fillColor=#008cff;whiteSpace=wrap;" vertex="1" parent="1">
                    <mxGeometry x="362.5" y="1149.5" width="80" height="25" as="geometry"/>
                </mxCell>
            </root>
        </mxGraphModel>
    </diagram>
</mxfile>